<svg width="14" height="12" viewBox="0 0 14 12" fill="none" xmlns="http://www.w3.org/2000/svg">
<g id="&#240;&#159;&#166;&#134; icon &#34;logout&#34;">
<g id="Group">
<path id="Vector" d="M6.74923e-05 7.69463L6.74963e-05 7.62047C6.76331e-05 5.08765 1.1099 3.86688 3.59593 3.65581C3.85595 3.63299 4.0906 3.80413 4.11597 4.04372C4.14134 4.2719 3.94474 4.48867 3.68472 4.51149C1.69336 4.67692 0.951355 5.5212 0.951355 7.62617L0.951355 7.70033C0.951355 10.0221 1.86459 10.8435 4.44575 10.8435L8.58069 10.8435C11.1618 10.8435 12.0751 10.0221 12.0751 7.70033L12.0751 7.62618C12.0751 5.50979 11.3204 4.66551 9.29098 4.51149C9.03096 4.48297 8.83436 4.28331 8.85973 4.04372C8.87876 3.80413 9.11341 3.63299 9.37343 3.6501C11.8975 3.84406 13.0264 5.07054 13.0264 7.62047L13.0264 7.69463C13.0264 10.4956 11.6946 11.6935 8.58069 11.6935L4.44575 11.6935C1.33187 11.6935 6.7341e-05 10.4956 6.74923e-05 7.69463Z" fill="#292D32"/>
<path id="Vector_2" d="M6.03797 7.55692L6.03797 1.06517C6.03797 0.831284 6.2536 0.637329 6.51361 0.637329C6.77363 0.637329 6.98926 0.831284 6.98926 1.06517L6.98926 7.55692C6.98926 7.79081 6.77363 7.98477 6.51361 7.98477C6.2536 7.98477 6.03797 7.79081 6.03797 7.55692Z" fill="#292D32"/>
<path id="Vector_3" d="M3.91352 2.33744C3.91352 2.22905 3.95791 2.12067 4.05304 2.0351L6.17758 0.124074C6.36149 -0.0413581 6.66591 -0.0413581 6.84982 0.124074L8.97437 2.0351C9.15828 2.20053 9.15828 2.47435 8.97437 2.63978C8.79045 2.80521 8.48604 2.80521 8.30213 2.63978L6.5137 1.0311L4.72528 2.63978C4.54136 2.80521 4.23695 2.80521 4.05304 2.63978C3.95791 2.55992 3.91352 2.44583 3.91352 2.33744Z" fill="#292D32"/>
</g>
</g>
</svg>
